<svg width="96" height="96" xmlns="http://www.w3.org/2000/svg" viewBox="0 0 500 500">
  <rect width="100%" height="100%" fill="#000000"/>
  <path d="M388 225c0 77-62.5 139.5-139.5 139.5S109 302 109 225s62.5-139.5 139.5-139.5S388 148 388 225z" fill="none" stroke="#ffffff" stroke-width="8"/>
  <path d="M306 135c-8 0-15 1-22 4-7 2-13 6-18 10-6 4-10 9-14 15-4 5-8 11-11 18-3 6-5 13-7 20-1 7-2 14-2 22 0 7 1 14 2 21 2 7 4 14 7 20 3 7 7 13 11 18 4 6 8 11 14 15 5 4 11 8 18 10 7 3 14 4 22 4 7 0 15-1 22-4 6-2 13-6 18-10 5-4 10-9 14-15 4-5 8-11 11-18 3-6 5-13 7-20 1-7 2-14 2-21 0-8-1-15-2-22-2-7-4-14-7-20-3-7-7-13-11-18-4-6-9-11-14-15-5-4-12-8-18-10-7-3-15-4-22-4zm-6 47c3 0 6 1 9 3 3 1 5 3 7 6 2 2 4 5 5 8 1 3 2 7 2 10 0 4 0 7-1 10-1 4-2 7-4 10-1 3-3 6-6 9-2 3-5 5-8 8l-9 7-11 7-12 7-12 8-12 8c-4 3-7 6-10 9-3 4-5 7-7 11-2 4-3 9-3 14 0 5 1 9 3 13 2 4 5 7 8 10 4 2 8 4 13 5 5 1 10 2 16 2 5 0 10-1 15-2 4-1 9-3 13-5 4-3 7-6 10-10 3-4 5-8 7-13 2-5 3-10 4-15 0-6 1-11 1-17v-8c0-3 0-5-1-7 0-2-1-4-2-5-1-2-2-3-3-4-2-1-4-1-6-1-3 0-5 0-7 1-2 0-3 1-5 2-1 1-2 3-3 4-1 2-1 4-1 6 0 1 0 2 1 4 0 1 0 2 1 3v4c0 4-1 8-1 12v11c0 3-1 6-2 9-1 3-2 5-4 7-2 2-4 3-7 4-2 1-5 1-9 1-3 0-5 0-7-1-2-1-4-2-5-3-1-2-2-3-3-5-1-2-1-4-1-6 0-3 1-6 2-8 2-3 4-5 6-7l9-7 10-6 11-7 12-7 12-7 11-8c3-3 7-6 9-9 3-3 5-7 7-10 2-4 3-8 3-13 0-5-1-9-3-13-2-4-4-8-8-10-3-3-7-5-12-7-5-1-10-2-15-2-6 0-12 1-17 3-5 1-10 4-14 7-4 3-8 7-10 12-3 4-5 9-6 15-2 5-3 11-3 17-1 6-1 12-1 18v4c0 2 1 3 1 4 1 1 1 2 2 3 1 1 3 1 4 1 2 0 4 0 5-1 2-1 3-2 4-3 1-1 1-3 2-4v-5c0-5 0-10 1-15 0-5 1-9 2-13 1-4 3-8 5-11 2-3 4-5 7-7 3-1 6-2 10-2z" fill="#ffffff"/>
  <text x="250" y="430" font-family="Arial" font-size="60" fill="#ffffff" text-anchor="middle">BIZZNEX</text>
</svg>